<?xml version="1.0" encoding="UTF-8"?>
<svg id="Layer_1" xmlns="http://www.w3.org/2000/svg" viewBox="0 0 138.83 139.51">
  <defs>
    <style>
      .cls-1 {
        fill: #fff;
      }

      .cls-2 {
        fill: #0466c8;
      }

      .cls-3 {
        fill: #161945;
      }
    </style>
  </defs>
  <path class="cls-1" d="M69.41,1.82C31.85,1.82,1.4,32.27,1.4,69.83s30.45,68.01,68.01,68.01,68.01-30.45,68.01-68.01S106.97,1.82,69.41,1.82Z"/>
  <g>
    <path class="cls-2" d="M92.67,83.36c0,6.56,3.73,9.74,11.39,9.74,10.46,0,15.55-5.09,15.55-15.55v-6.69c-2.78-.55-4.89-.83-6.3-.83-13.89,0-20.64,4.36-20.64,13.33Z"/>
    <path class="cls-2" d="M30.62,93.1c10.47,0,15.55-5.09,15.55-15.55v-6.69c-2.78-.55-4.89-.83-6.3-.83-13.89,0-20.64,4.36-20.64,13.33,0,6.56,3.73,9.74,11.39,9.74Z"/>
    <path class="cls-3" d="M100.76,108.54c-8.38,0-15.07-2.14-19.89-6.35-4.84-4.23-7.3-10.3-7.3-18.04,0-9.04,3.44-16.22,10.24-21.33,6.74-5.08,16.43-7.65,28.78-7.65,1.96,0,4.26.31,6.86.91-.3-8.22-5.72-12.22-16.54-12.22-6.52,0-12.07,1.09-16.49,3.24l-.84.41v-16.83l.39-.14c5.33-1.87,11.44-2.82,18.15-2.82,1.75,0,3.43.07,5.04.19-9.93-9.11-23.17-14.68-37.72-14.68s-27.68,5.52-37.6,14.57c10.23.46,17.95,3.17,22.98,8.08,5.54,5.42,8.35,15.75,8.35,30.71v16.42c0,9.97,1.98,16.3,5.9,18.8l.47.3-.28.48c-1.55,2.7-3.32,4.39-5.27,5.03-1.87.61-4.03.93-6.42.93-2.72,0-5.2-1.02-7.35-3.02-1.78-1.66-3.1-3.47-3.91-5.4-1.75,2.34-4.47,4.3-8.12,5.83-2.71,1.14-5.53,1.9-8.42,2.29,10.11,10.23,24.15,16.58,39.68,16.58,16.54,0,31.39-7.2,41.61-18.63-3.92,1.56-8.06,2.36-12.3,2.36Z"/>
    <path class="cls-3" d="M46.01,56.08c-.3-8.22-5.72-12.22-16.54-12.22-2.92,0-5.64.23-8.16.67-2.24,4.59-3.86,9.53-4.78,14.71,6.06-2.7,13.63-4.07,22.62-4.07,1.96,0,4.26.31,6.86.91Z"/>
  </g>
</svg>
