<svg width="103" height="45" viewBox="0 0 103 45" fill="none" xmlns="http://www.w3.org/2000/svg">
<path d="M0 1.48436L6.18377 0V29.7801C6.18377 33.0454 7.15626 34.9911 9.1023 35.6172C8.14548 37.4322 6.51304 38.3375 4.20463 38.3375C1.40108 38.3375 0 36.3932 0 32.5011V1.48436Z" fill="#0466C8"/>
<path d="M34.7631 44.1473C45.3932 44.1473 54.0106 35.5299 54.0106 24.8998C54.0106 14.2697 45.3932 5.65234 34.7631 5.65234C24.133 5.65234 15.5156 14.2697 15.5156 24.8998C15.5156 35.5299 24.133 44.1473 34.7631 44.1473Z" fill="#161945"/>
<path d="M79.5158 11.789C78.5684 11.3012 77.4213 10.8594 76.07 10.8594C73.1999 10.8594 70.9002 11.8326 69.1681 13.7776V11.3542H62.9844V37.8443H69.1681V22.7565C69.1681 20.8763 69.7246 19.285 70.8382 17.9825C71.9504 16.6801 73.2421 16.2532 74.6592 16.0281C76.0683 15.8048 78.4199 16.003 79.4757 17.1198L79.5154 16.9926V11.789H79.5158Z" fill="#0466C8"/>
<path d="M100.402 29.7316V24.0666C100.402 18.9394 99.4624 15.4556 97.5819 13.6169C95.7024 11.7782 92.7424 10.8594 88.7022 10.8594C86.383 10.8594 84.3209 11.1834 82.5055 11.8211V17.1641C84.0617 16.4079 85.9865 16.0281 88.282 16.0281C92.2225 16.0281 94.1936 17.5867 94.1936 20.7042C93.2037 20.4565 92.3455 20.3321 91.6207 20.3321C87.383 20.3321 84.1139 21.1983 81.8135 22.9297C79.5131 24.6611 78.3633 27.0604 78.3633 30.1271C78.3633 32.7491 79.1804 34.7732 80.8121 36.199C82.4449 37.6255 84.6868 38.3381 87.5408 38.3381C89.0573 38.3381 90.5116 38.0461 91.9058 37.4614C93.2985 36.876 94.2762 36.1213 94.8372 35.1979C95.0842 35.9725 95.563 36.6903 96.2714 37.3506C96.9797 38.0088 97.7805 38.3381 98.6707 38.3381C99.4781 38.3381 100.196 38.2353 100.822 38.0297C101.449 37.8241 102.017 37.275 102.529 36.3854C101.11 35.4788 100.402 33.2595 100.402 29.7316ZM94.2427 27.8504C94.2427 31.5606 92.3876 33.4167 88.6764 33.4167C85.9234 33.4167 84.5464 32.2292 84.5464 29.8553C84.5464 26.6559 86.9865 25.0569 91.8681 25.0569C92.395 25.0569 93.187 25.1639 94.2424 25.3775V27.8504H94.2427Z" fill="#0466C8"/>
<path d="M57.7302 29.7335V24.0686C57.7302 18.9413 56.7905 15.4576 54.91 13.6189C53.0312 11.7802 50.0705 10.8613 46.0303 10.8613C43.7118 10.8613 41.6487 11.1854 39.8337 11.823V17.166C41.3898 16.4099 43.3142 16.0301 45.6094 16.0301C49.551 16.0301 51.521 17.5887 51.521 20.7062C50.5318 20.4584 49.675 20.334 48.9496 20.334C44.7115 20.334 41.4424 21.2002 39.1424 22.9316C36.8423 24.663 35.6914 27.0624 35.6914 30.129C35.6914 32.751 36.5085 34.7751 38.1409 36.2009C39.7734 37.6275 42.0156 38.34 44.8683 38.34C46.3854 38.34 47.8401 38.048 49.2339 37.4633C50.6273 36.878 51.6043 36.1232 52.165 35.1999C52.412 35.9745 52.8904 36.6922 53.5991 37.3525C54.3086 38.0107 55.1082 38.34 55.9985 38.34C56.8062 38.34 57.5243 38.2372 58.1501 38.0316C58.7773 37.8261 59.3463 37.2769 59.8571 36.3874C58.439 35.4807 57.7302 33.2615 57.7302 29.7335Z" fill="white"/>
<path d="M55.9992 38.5313C55.063 38.5313 54.2114 38.1814 53.4678 37.4915C52.8483 36.9145 52.3946 36.2863 52.1148 35.6193C51.5127 36.4312 50.5709 37.1096 49.3092 37.6386C47.898 38.2313 46.4042 38.5316 44.8686 38.5316C41.9811 38.5316 39.6748 37.7968 38.0138 36.3451C36.3444 34.8873 35.498 32.7949 35.498 30.1269C35.498 27.0101 36.6852 24.5369 39.0257 22.7748C41.3508 21.0253 44.6895 20.1378 48.9499 20.1378C49.6259 20.1378 50.4235 20.2455 51.3235 20.4563C51.2221 17.6074 49.3506 16.222 45.6101 16.222C43.3589 16.222 41.4438 16.5977 39.9191 17.3374L39.6407 17.4736V11.6836L39.7699 11.6386C41.6069 10.9923 43.7139 10.6641 46.031 10.6641C50.1054 10.6641 53.1389 11.6115 55.0462 13.4774C56.9564 15.3461 57.9247 18.9082 57.9247 24.0661V29.7311C57.9247 33.174 58.6108 35.357 59.962 36.2215L60.1178 36.3208L60.0254 36.4814C59.4913 37.4103 58.8812 37.9929 58.2111 38.2135C57.5693 38.4243 56.8247 38.5313 55.9992 38.5313ZM52.2214 34.7322L52.3507 35.1378C52.5852 35.8768 53.05 36.5723 53.7316 37.2072C54.4016 37.8285 55.164 38.1438 55.9992 38.1438C56.7839 38.1438 57.4874 38.0431 58.0909 37.8445C58.6313 37.6668 59.1376 37.1953 59.5986 36.442C58.2306 35.4423 57.5372 33.1862 57.5372 29.7311V24.0661C57.5372 19.0172 56.6083 15.5471 54.7751 13.7544C52.9424 11.9617 50.0008 11.0519 46.031 11.0519C43.8125 11.0519 41.7933 11.3568 40.0278 11.9592V16.8593C41.5574 16.1795 43.4334 15.8346 45.6101 15.8346C49.6618 15.8346 51.7151 17.4726 51.7151 20.704V20.9511L51.4747 20.8911C50.5047 20.649 49.6552 20.5256 48.9503 20.5256C44.7763 20.5256 41.5156 21.3866 39.2591 23.0846C37.0207 24.7689 35.8855 27.1387 35.8855 30.1269C35.8855 32.6782 36.6876 34.6723 38.2685 36.0532C39.8563 37.4406 42.0773 38.1445 44.8683 38.1445C46.352 38.1445 47.7955 37.8546 49.159 37.2821C50.5064 36.7159 51.4622 35.9817 51.9995 35.097L52.2214 34.7322Z" fill="#161945"/>
<path d="M51.5789 27.854C51.5789 31.5642 49.7234 33.4203 46.0136 33.4203C43.2595 33.4203 41.8828 32.2328 41.8828 29.8589C41.8828 26.6595 44.3236 25.0605 49.2046 25.0605C49.7314 25.0605 50.5238 25.1675 51.5789 25.3811V27.854Z" fill="#161945"/>
<path d="M32.3982 29.7335V24.0686C32.3982 18.9413 31.4588 15.4576 29.5779 13.6189C27.6992 11.7802 24.7378 10.8613 20.6986 10.8613C18.3791 10.8613 16.3167 11.1854 14.502 11.823V17.166C16.0581 16.4099 17.9829 16.0301 20.2784 16.0301C24.2189 16.0301 26.1897 17.5887 26.1897 20.7062C25.2005 20.4584 24.3433 20.334 23.6172 20.334C19.3787 20.334 16.1104 21.2002 13.8103 22.9316C11.5099 24.663 10.3594 27.0624 10.3594 30.129C10.3594 32.751 11.1765 34.7751 12.8086 36.2009C14.4417 37.6275 16.6829 38.34 19.5359 38.34C21.053 38.34 22.5077 38.048 23.9018 37.4633C25.2953 36.878 26.2726 36.1232 26.8333 35.1999C27.0803 35.9745 27.5587 36.6922 28.2675 37.3525C28.9762 38.0107 29.7759 38.34 30.6668 38.34C31.4745 38.34 32.1916 38.2372 32.8191 38.0316C33.4449 37.8261 34.0139 37.2769 34.5251 36.3874C33.1066 35.4807 32.3982 33.2615 32.3982 29.7335Z" fill="white"/>
<path d="M30.6679 38.5313C29.7313 38.5313 28.88 38.1814 28.1368 37.4915C27.5173 36.9145 27.0633 36.287 26.7835 35.6193C26.1817 36.4312 25.2395 37.1096 23.9775 37.6386C22.566 38.2313 21.0718 38.5316 19.5366 38.5316C16.6491 38.5316 14.3428 37.7968 12.6818 36.3451C11.0131 34.8873 10.166 32.7952 10.166 30.1269C10.166 27.0101 11.3535 24.5369 13.6947 22.7748C16.0195 21.0253 19.3586 20.1378 23.6179 20.1378C24.2942 20.1378 25.0921 20.2455 25.9922 20.4563C25.8915 17.6074 24.0196 16.222 20.2791 16.222C18.0272 16.222 16.1125 16.5977 14.5874 17.3374L14.3086 17.4736V11.6836L14.4386 11.6386C16.2752 10.9923 18.3815 10.6641 20.6994 10.6641C24.7733 10.6641 27.8072 11.6115 29.7146 13.4774C31.6247 15.3447 32.593 18.9082 32.593 24.0661V29.7311C32.593 33.174 33.2787 35.3577 34.6307 36.2215L34.7861 36.3208L34.6945 36.4814C34.1603 37.4103 33.5498 37.9929 32.8808 38.2135C32.2369 38.4243 31.493 38.5313 30.6679 38.5313ZM26.8894 34.7322L27.0187 35.1378C27.2549 35.8768 27.7197 36.573 28.4006 37.2072C29.0696 37.8285 29.832 38.1438 30.6679 38.1438C31.4515 38.1438 32.1557 38.0431 32.7596 37.8445C33.2993 37.6668 33.8063 37.1953 34.2673 36.442C32.8993 35.4423 32.2056 33.1862 32.2056 29.7311V24.0661C32.2056 19.0165 31.2763 15.5471 29.4435 13.7544C27.611 11.9617 24.6691 11.0519 20.6994 11.0519C18.4801 11.0519 16.4616 11.3568 14.6961 11.9592V16.8593C16.2257 16.1795 18.1017 15.8346 20.2788 15.8346C24.3294 15.8346 26.3838 17.4726 26.3838 20.704V20.9511L26.143 20.8911C25.1726 20.649 24.3231 20.5256 23.6175 20.5256C19.4436 20.5256 16.1832 21.3866 13.9271 23.0846C11.6887 24.7696 10.5531 27.1387 10.5531 30.1269C10.5531 32.6782 11.3556 34.6723 12.9365 36.0532C14.525 37.4406 16.7453 38.1445 19.5359 38.1445C21.0199 38.1445 22.4632 37.8546 23.827 37.2821C25.1751 36.7159 26.1308 35.981 26.6674 35.097L26.8894 34.7322Z" fill="#161945"/>
<path d="M26.2468 27.854C26.2468 31.5642 24.3917 33.4203 20.6812 33.4203C17.9278 33.4203 16.5508 32.2328 16.5508 29.8589C16.5508 26.6595 18.9916 25.0605 23.8726 25.0605C24.4004 25.0605 25.1914 25.1675 26.2468 25.3811V27.854Z" fill="#161945"/>
</svg>
